<?xml version="1.0" encoding="UTF-8"?>
      <svg
        enable-background="new -153 -46 652 652"
        version="1.1"
        viewBox="-153 -46 652 652"
        xml:space="preserve"
        xmlns="http://www.w3.org/2000/svg"
        xmlns:xlink="http://www.w3.org/1999/xlink"
      >
        <style type="text/css">
          .st0 {
            clip-path: url(#h);
            fill: #00498c;
          }
          .st1 {
            clip-path: url(#f);
            fill: #00498c;
          }
          .st2 {
            clip-path: url(#d);
            fill: #00498c;
          }
          .st3 {
            clip-path: url(#b);
            fill: #00498c;
          }
          .st4 {
            clip-path: url(#n);
            fill: #ff7800;
          }
          .st5 {
            clip-path: url(#l);
            fill: #00498c;
          }
          .st6 {
            clip-path: url(#j);
            fill: #ff7800;
          }
        </style>

        <defs>
          <path
            id="i"
            d="m17.5 318.4 8.2-35.5h11c15.5 0 28.4 4.3 28.1 18.8-0.4 16.2-17 22.8-35.1 22.8h-8.3c-5-0.8-3.9-6.1-3.9-6.1zm82.3-16.1c1-16.1-11.2-30.1-27.3-31.4 15.5-2.5 35.8-13.9 35.8-34.7 0-22.2-22.4-34.1-56.1-34.1-14.5 0-29.1 1.1-43.5 3.5l-24.2 107s-8.3 27.7 15.4 33.4c6.1 1.6 12.5 2.5 18.8 2.6 62.8 3.5 81.1-24.8 81.1-46.3zm-61.5-75.5c4.8-0.6 9.6-0.8 14.5-0.8 12.6 0 21.6 4.5 21.4 14.8-0.3 12.6-13 19.6-31.4 19.6h-7.1c-5.2 0-3.7-6-3.7-6l6.3-27.6z"
          />
        </defs>
        <clipPath id="h">
          <use xlink:href="#i" />
        </clipPath>
        <rect class="st0" x="-40.3" y="178.5" width="172.1" height="193.9" />

        <defs>
          <path
            id="g"
            d="m253.9 349c5.1 0 14.7-2 18.1-16.7 2.6-11.7 7-31.4 7-31.4 3.4 0 8.2 0.9 13.7 0.9 54 0 72.7-34.7 72.7-58.2 0-25.7-17.9-40.5-56.9-40.7-14.4-0.7-28.8 0.4-43 3.1l-31.7 143h20.1zm43.3-121.2c4.6-0.5 9.3-0.8 14-0.7 12.6 0 23 3.7 23 18.8s-11.7 30.1-34.3 30.3h-4.3c-10.2 0-7.3-8.5-7.3-8.5l8.9-39.9z"
          />
        </defs>
        <clipPath id="f">
          <use xlink:href="#g" />
        </clipPath>
        <rect class="st1" x="210.4" y="179.2" width="178.5" height="193.3" />

        <defs>
          <path
            id="e"
            d="m154.7 285.9c0-23.2 15.1-57.9 49.6-57.9 9.1 0 25.1 2.3 34.6 10.7 0 0 3.5-11.9 4.5-16.7 1-4.9-0.8-12.6-15.7-17.6-8.9-3.1-18.3-4.6-27.7-4.6-54 0-82.1 44.4-82.1 87.9 0 46.7 31.4 62.8 63.3 62.8 9 0.4 18-0.9 26.5-3.9 5.1-1.7 9-5.9 10.4-11.1l5.3-24c-9.3 7.6-21 11.7-32.9 11.5-22.5 0-35.6-14.5-35.6-37"
          />
        </defs>
        <clipPath id="d">
          <use xlink:href="#e" />
        </clipPath>
        <rect class="st2" x="94.5" y="176.2" width="172.6" height="197.6" />

        <defs>
          <path
            id="c"
            d="m-80.1 213.2c-12.3-5.8-26 10.6-26.8 11.5-3.2 4.1-5.9 8.6-8.1 13.4l7 3.6c12.9 6.3 24.6 15 34.3 25.6 8.3-20.5 7-48.1-6.4-54.1z"
          />
        </defs>
        <clipPath id="b">
          <use xlink:href="#c" />
        </clipPath>
        <rect class="st3" x="-138.4" y="188.5" width="93.4" height="102.2" />

        <defs>
          <path
            id="a"
            d="m-32.2 288.1c-13 20.9-48.6 44.6-58.6 48.1-12 5.1-25.9 1.6-34-8.6-2.5-2.8-4.5-5.8-6.3-9.1 79.8-36.1 66.3-98.2 51.2-105.2 9.6 5 18.5 11.1 26.6 18.2 6.9 6.1 13.2 12.8 18.8 20 8.5 10.4 9.4 25.2 2.3 36.6z"
          />
        </defs>
        <clipPath id="n">
          <use xlink:href="#a" />
        </clipPath>
        <rect class="st4" x="-154.6" y="189.8" width="150.9" height="172.3" />

        <defs>
          <path
            id="m"
            d="m422.7 267.3c8.4-20.5 7-48-6.3-54-12.3-5.8-26.2 10.6-26.7 11.5-3.2 4.1-6 8.6-8.2 13.4l7 3.6c13 6.2 24.6 14.9 34.2 25.5"
          />
        </defs>
        <clipPath id="l">
          <use xlink:href="#m" />
        </clipPath>
        <rect class="st5" x="358" y="188.5" width="93.4" height="102.2" />

        <defs>
          <path
            id="k"
            d="m405.6 336.2c-12 5-25.8 1.5-34-8.6-2.4-2.8-4.5-5.8-6.3-9.1 79.8-36.1 66.2-98.2 51.1-105.2 9.6 5 18.5 11.1 26.6 18.2 6.9 6.1 13.2 12.8 18.8 20 8.5 10.5 9.3 25.2 2.1 36.6-12.7 20.8-48.2 44.6-58.3 48.1z"
          />
        </defs>
        <clipPath id="j">
          <use xlink:href="#k" />
        </clipPath>
        <rect class="st6" x="341.8" y="189.8" width="150.9" height="172.3" />
      </svg>